<?xml version="1.0" standalone="no"?>
<!DOCTYPE svg PUBLIC "-//W3C//DTD SVG 20010904//EN"
 "http://www.w3.org/TR/2001/REC-SVG-20010904/DTD/svg10.dtd">
<svg version="1.0" xmlns="http://www.w3.org/2000/svg"
 width="340.000000pt" height="340.000000pt" viewBox="0 0 340.000000 340.000000"
 preserveAspectRatio="xMidYMid meet">
<metadata>
Created by potrace 1.11, written by Peter Selinger 2001-2013
</metadata>
<g transform="translate(0.000000,340.000000) scale(0.100000,-0.100000)"
fill="#000000" stroke="none">
<path d="M852 3353 c-11 -12 -17 -25 -14 -28 4 -3 -2 -3 -12 1 -13 5 -17 4
-13 -3 4 -6 -1 -14 -11 -18 -16 -7 -15 -8 3 -15 19 -8 19 -9 1 -9 -13 -1 -17
-6 -13 -21 3 -11 0 -23 -5 -27 -7 -4 -8 -1 -3 8 5 8 4 10 0 6 -16 -14 -14 -39
2 -33 14 6 14 4 2 -10 -7 -9 -14 -23 -15 -32 -4 -21 15 -44 29 -35 6 3 7 1 3
-5 -4 -6 -13 -9 -20 -6 -8 3 -17 0 -22 -7 -4 -7 -3 -10 3 -6 6 4 10 -5 9 -22
-1 -16 -5 -26 -10 -23 -5 3 -7 -2 -3 -10 7 -19 -27 -53 -43 -43 -6 3 -9 1 -8
-6 2 -7 -4 -13 -12 -14 -9 0 -15 -9 -14 -23 1 -19 -1 -20 -14 -10 -13 11 -15
10 -9 -4 3 -10 0 -24 -8 -32 -8 -7 -11 -17 -7 -22 4 -5 -1 -2 -11 6 -10 7 -17
9 -16 4 3 -19 -1 -35 -9 -30 -5 3 -9 -1 -9 -8 0 -8 7 -12 16 -9 9 3 6 -2 -7
-12 -19 -14 -21 -19 -10 -33 10 -14 10 -15 -2 -4 -21 18 -29 15 -25 -13 1 -14
-2 -28 -7 -31 -4 -3 -5 -10 -2 -16 5 -7 1 -9 -9 -5 -11 4 -15 1 -12 -13 2 -11
0 -22 -6 -25 -5 -4 -9 -15 -9 -27 0 -13 -5 -18 -13 -15 -10 4 -13 -2 -9 -21 4
-20 2 -24 -10 -19 -12 4 -14 0 -11 -14 3 -10 10 -16 16 -12 6 3 7 1 3 -5 -4
-7 -14 -12 -22 -12 -8 0 -14 -4 -14 -10 0 -5 5 -10 11 -10 6 0 3 -7 -5 -16
-19 -18 -21 -38 -3 -28 8 5 8 3 -2 -9 -7 -9 -17 -15 -21 -12 -5 3 -12 0 -16
-6 -4 -7 -3 -9 2 -6 6 3 16 2 24 -4 12 -7 12 -9 1 -9 -9 0 -11 -8 -6 -27 6
-27 6 -27 -9 -8 l-15 20 2 -20 c1 -11 7 -23 12 -27 6 -5 5 -8 -4 -8 -11 0 -11
-3 -1 -15 11 -13 10 -14 -4 -9 -12 5 -15 2 -10 -10 4 -10 1 -16 -7 -16 -11 0
-11 -3 1 -10 13 -9 13 -10 0 -11 -8 -1 -19 -1 -23 0 -5 1 -6 -3 -2 -8 3 -6 11
-9 18 -7 7 1 9 1 4 -1 -4 -3 -5 -9 -2 -13 3 -5 -3 -7 -15 -5 -23 4 -36 -10
-19 -21 8 -5 9 -3 4 6 -5 9 -4 11 4 6 17 -11 4 -25 -20 -21 -16 3 -19 0 -15
-12 6 -14 4 -14 -11 -2 -11 9 -14 10 -9 2 4 -7 2 -14 -3 -14 -6 -1 -15 -3 -21
-4 -5 -1 -13 -3 -16 -4 -4 0 0 -8 7 -18 13 -15 12 -15 -11 -3 -23 12 -24 12
-11 -4 12 -14 12 -16 -4 -9 -15 5 -17 3 -12 -12 6 -15 5 -16 -8 -5 -13 11 -14
10 -9 -4 4 -9 1 -16 -6 -16 -7 0 -10 -7 -6 -16 3 -8 2 -13 -3 -10 -5 3 -17 -2
-28 -12 -10 -9 -13 -13 -6 -8 8 5 13 4 13 -3 0 -6 -10 -16 -22 -21 -20 -8 -21
-9 -4 -9 19 -1 19 -1 1 -14 -12 -10 -14 -16 -7 -21 7 -4 12 -13 12 -19 0 -7
-4 -6 -11 3 -8 11 -9 4 -6 -28 3 -23 2 -40 -2 -37 -4 2 -8 -2 -8 -10 0 -8 5
-12 10 -8 5 3 6 -4 2 -17 -4 -13 -3 -20 2 -17 5 3 15 1 23 -5 13 -8 12 -9 -2
-5 -24 8 -30 -4 -10 -20 9 -8 11 -12 5 -8 -7 3 -13 1 -13 -4 0 -6 7 -11 17
-11 9 0 13 -3 10 -6 -3 -4 2 -18 13 -31 10 -14 16 -31 13 -40 -5 -12 -2 -15
10 -10 12 4 14 2 10 -10 -4 -11 -2 -14 5 -9 16 10 15 -7 -1 -23 -10 -11 -8
-12 11 -6 17 5 22 2 22 -12 0 -15 2 -16 10 -3 9 13 10 13 11 0 1 -8 0 -19 -1
-25 -1 -5 2 -7 5 -3 4 4 17 3 28 -3 14 -8 18 -8 13 0 -4 6 -3 11 3 11 5 0 11
-5 13 -12 3 -7 18 -13 34 -14 17 -1 28 -7 26 -14 -2 -7 5 -9 18 -5 13 4 20 2
20 -6 0 -7 3 -9 7 -6 3 4 13 -2 20 -13 8 -11 18 -18 23 -15 4 3 8 -1 7 -8 -1
-34 4 -48 15 -41 7 5 8 3 3 -7 -5 -7 -10 -22 -10 -31 -2 -17 -1 -17 19 -1 12
10 15 11 9 3 -16 -18 -17 -44 -1 -34 7 4 8 3 4 -5 -4 -6 -2 -19 6 -28 11 -14
11 -16 -1 -8 -16 9 -8 -8 16 -36 8 -9 12 -28 9 -43 -3 -15 -1 -24 5 -21 5 4 7
10 5 14 -3 4 1 8 9 8 11 0 12 -5 3 -20 -6 -11 -6 -17 0 -13 5 3 12 -8 15 -24
5 -23 10 -28 23 -23 11 4 15 2 11 -4 -10 -15 3 -44 15 -37 6 4 6 -2 -1 -14 -9
-18 -8 -19 12 -15 21 5 21 5 3 -9 -15 -12 -16 -17 -6 -23 9 -5 11 -4 6 3 -4 7
-2 12 5 12 6 0 9 -8 6 -19 -4 -16 0 -18 22 -15 25 5 25 5 6 -10 -18 -14 -18
-15 -2 -16 11 0 17 -8 17 -22 0 -19 2 -20 10 -8 8 13 10 12 10 -3 0 -12 5 -16
13 -11 10 6 10 4 0 -7 -7 -7 -13 -18 -13 -23 0 -6 4 -5 9 3 7 11 13 9 29 -7
11 -11 24 -17 28 -14 3 4 2 -3 -5 -15 -10 -19 -9 -21 8 -18 15 3 18 -1 14 -18
-4 -18 -3 -20 7 -7 10 13 11 12 7 -6 -4 -18 0 -22 19 -19 20 2 22 -1 13 -16
-8 -15 -6 -17 6 -12 11 4 18 -1 22 -17 4 -16 8 -18 14 -8 7 10 9 9 9 -4 0 -12
5 -15 17 -11 12 5 14 3 8 -7 -6 -10 -3 -12 13 -8 14 4 19 2 16 -7 -3 -7 6 -15
21 -19 21 -5 26 -12 22 -26 -3 -11 -1 -23 4 -26 5 -3 7 -9 4 -14 -3 -5 0 -12
6 -16 8 -5 9 -3 4 6 -5 9 -4 11 4 6 6 -4 8 -13 4 -19 -11 -17 -13 -38 -3 -32
5 3 11 1 15 -5 3 -5 1 -10 -5 -10 -7 0 -10 -6 -7 -12 2 -7 10 -12 16 -10 7 1
10 -2 6 -7 -3 -6 -13 -7 -23 -4 -16 5 -16 5 1 -8 9 -8 19 -24 22 -37 2 -12 7
-27 11 -34 5 -7 3 -8 -7 -3 -11 7 -11 5 1 -10 8 -10 14 -26 12 -37 -2 -10 2
-18 9 -18 6 0 9 -8 6 -20 -3 -12 1 -23 10 -29 10 -5 14 -16 10 -31 -4 -17 -2
-20 10 -16 12 5 13 4 5 -7 -14 -16 -6 -28 14 -20 9 3 14 -1 14 -12 0 -9 4 -14
9 -10 5 3 12 -4 16 -15 5 -16 10 -18 25 -10 13 7 21 7 26 -2 5 -7 3 -8 -6 -3
-9 5 -11 4 -6 -4 6 -9 11 -9 21 -1 10 8 15 8 21 -1 5 -8 3 -9 -6 -4 -9 5 -11
4 -6 -4 6 -9 11 -9 21 -1 10 8 14 7 18 -2 4 -10 6 -10 6 0 1 6 6 12 12 12 5 0
7 -6 3 -12 -6 -9 -3 -9 9 0 9 8 22 10 28 6 8 -4 9 -3 5 4 -4 8 0 12 11 12 10
0 27 7 37 15 10 8 22 12 26 10 4 -2 5 7 2 22 -3 18 -1 24 7 19 6 -4 9 -13 5
-19 -3 -7 1 -4 9 5 8 10 16 15 19 13 3 -3 4 8 3 25 -1 22 1 27 10 20 18 -15
26 0 13 24 -10 19 -10 20 5 7 16 -12 22 -8 18 12 -1 5 8 6 19 2 13 -4 22 -1
26 9 4 11 11 13 23 6 12 -6 22 -5 30 3 10 9 11 9 6 -4 -4 -12 2 -15 32 -14 21
0 45 5 53 10 9 5 6 -2 -5 -15 -12 -14 -14 -20 -5 -14 22 13 60 16 60 5 0 -5 8
-8 18 -6 9 2 17 4 17 5 0 1 17 3 37 4 22 1 34 -2 31 -7 -4 -6 5 -7 21 -3 20 5
26 4 20 -5 -5 -8 -3 -9 6 -4 7 4 16 2 22 -6 8 -11 9 -10 4 3 -3 10 0 20 6 24
6 4 8 3 4 -4 -10 -17 28 -19 42 -2 8 8 11 10 7 3 -3 -7 5 -17 17 -24 20 -11
21 -10 11 3 -11 12 -9 14 7 13 11 -1 23 -5 27 -10 5 -4 2 -5 -6 0 -10 5 -12 4
-7 -3 5 -9 13 -9 26 -2 17 9 19 8 13 -7 -6 -16 -5 -16 10 -4 15 12 17 12 11
-3 -4 -9 -1 -16 6 -16 8 0 11 -11 8 -30 -3 -17 0 -34 5 -37 6 -3 7 -1 3 5 -3
6 -2 13 3 16 18 11 4 -27 -15 -41 -18 -14 -18 -14 0 -11 10 2 21 -3 24 -11 3
-8 0 -11 -6 -7 -12 7 -10 -20 3 -31 4 -4 5 -2 0 6 -5 10 -4 12 4 7 6 -4 9 -11
6 -16 -3 -5 -1 -11 5 -15 7 -4 7 -12 0 -25 -14 -25 -13 -37 2 -22 14 14 32 16
24 3 -3 -5 3 -11 15 -14 12 -3 22 0 25 8 7 16 32 13 45 -6 8 -10 8 -7 3 11
l-7 25 23 -20 c23 -20 23 -20 16 0 -4 11 -4 16 0 12 4 -4 14 -1 23 6 14 11 15
10 1 -7 -10 -13 -11 -17 -2 -12 7 4 20 2 29 -6 12 -9 15 -9 9 0 -4 7 -1 12 8
12 9 0 16 -5 16 -11 0 -8 6 -7 17 2 15 13 15 12 3 -11 -13 -24 -12 -24 5 -10
11 9 16 10 11 3 -5 -9 -1 -13 11 -14 16 0 16 -1 -2 -9 -18 -8 -19 -9 -1 -9 12
-1 16 -6 12 -16 -19 -47 -19 -51 -4 -32 13 17 15 17 27 3 12 -14 12 -16 -3
-10 -11 4 -16 1 -16 -10 0 -9 5 -16 10 -16 6 0 10 -5 10 -11 0 -5 -4 -8 -9 -5
-11 7 -8 -21 4 -31 4 -4 5 -2 0 6 -6 10 -4 12 5 6 10 -6 9 -11 -4 -20 -15 -11
-14 -14 14 -23 16 -6 30 -16 30 -23 0 -7 3 -9 6 -6 4 4 1 13 -6 22 -11 13 -10
14 4 9 9 -3 16 -11 16 -17 0 -7 4 -7 12 1 16 16 31 15 22 0 -5 -9 -2 -9 9 1
15 12 17 11 18 -5 0 -16 1 -16 9 3 5 13 17 21 29 20 11 0 18 -4 15 -8 -2 -4 3
-9 11 -12 10 -4 12 -1 8 11 -6 15 -5 16 12 2 17 -13 18 -13 13 0 -4 11 0 16
13 17 10 1 19 -3 19 -8 0 -6 5 -7 10 -4 6 4 8 10 5 15 -3 5 0 12 6 16 8 5 9 3
4 -6 -6 -10 -4 -12 7 -7 9 3 21 0 28 -6 10 -9 11 -9 5 2 -6 11 -4 13 10 7 14
-5 16 -4 6 7 -9 12 -7 13 15 9 20 -3 26 0 31 17 3 11 9 21 14 21 5 0 9 5 9 11
0 5 -5 7 -11 3 -6 -3 -4 5 5 19 15 22 15 26 2 40 -11 11 -12 17 -4 19 6 2 12
12 14 21 1 9 -2 15 -7 11 -5 -3 -6 -11 -3 -17 4 -7 3 -8 -1 -4 -14 12 -14 37
0 37 15 0 11 53 -4 58 -7 2 -5 9 4 18 11 11 12 21 5 33 -5 10 -6 22 -2 26 4 5
2 5 -4 2 -7 -4 -14 0 -17 8 -4 10 -1 12 11 8 12 -5 10 0 -6 17 -12 13 -20 31
-17 39 4 11 3 12 -10 1 -13 -10 -15 -9 -15 10 0 15 -5 20 -14 17 -8 -3 -20 1
-26 9 -8 9 -9 14 -2 14 6 0 13 -6 15 -12 4 -8 6 -7 6 3 1 9 -6 20 -15 23 -9 4
-14 9 -11 12 3 4 -4 15 -16 26 l-22 19 25 -12 25 -12 -20 23 c-11 13 -14 20
-7 16 6 -4 13 -2 13 3 1 6 2 17 3 24 1 6 -3 18 -8 26 -8 11 -8 13 0 8 7 -4 18
1 25 10 10 12 10 14 2 9 -7 -4 -13 -2 -13 3 0 6 5 11 11 11 8 0 7 5 -1 15 -11
13 -10 14 6 8 17 -6 18 -5 4 12 -14 17 -14 18 7 7 23 -13 26 -1 9 27 -6 9 -5
12 1 8 6 -4 14 1 17 10 4 9 1 20 -6 25 -12 7 -4 12 15 9 5 -1 5 3 2 9 -4 6
-13 9 -21 6 -9 -3 -11 0 -7 11 5 12 3 14 -7 8 -10 -6 -12 -4 -8 7 4 8 -2 21
-13 29 -12 9 -17 20 -13 34 4 17 3 18 -6 5 -10 -12 -11 -11 -7 8 4 16 0 22
-11 23 -12 0 -10 3 6 9 12 5 22 12 22 15 0 4 -5 3 -12 -1 -7 -5 -9 -2 -5 8 3
9 0 21 -6 28 -9 10 -6 9 13 0 23 -12 24 -12 11 3 -12 15 -11 17 5 17 17 0 17
1 -2 15 -10 8 -14 14 -9 13 6 -2 11 1 12 6 1 5 7 12 14 17 7 4 12 21 12 39 0
24 4 29 16 25 11 -4 10 -1 -4 15 -10 11 -15 23 -12 27 4 3 7 1 7 -5 0 -7 5
-12 10 -12 6 0 8 11 6 25 -3 13 0 28 6 31 7 4 8 2 4 -4 -4 -7 -2 -12 3 -12 13
0 14 17 2 24 -5 4 -8 14 -6 24 2 9 4 21 4 26 1 5 9 2 18 -5 13 -11 13 -8 -3
16 -19 29 -19 29 1 21 16 -6 18 -5 8 5 -7 7 -13 17 -13 22 0 4 6 5 13 1 8 -5
8 -2 -2 9 -9 11 -10 17 -2 17 6 0 11 5 11 11 0 5 -4 8 -8 5 -4 -2 -8 6 -8 19
0 13 4 21 10 18 5 -4 7 3 4 15 -4 12 -1 20 4 19 6 -1 13 4 16 12 3 8 0 11 -7
7 -7 -5 -9 -1 -5 9 6 14 8 14 21 -2 13 -16 14 -15 9 12 -3 17 -3 24 0 18 8
-18 33 -16 40 2 4 8 10 15 16 15 5 0 6 -6 3 -12 -4 -7 -1 -6 7 2 7 8 21 21 31
29 16 12 17 12 11 -5 -5 -18 -5 -18 9 -2 8 10 18 14 22 10 5 -4 6 0 3 9 -5 13
-1 15 20 11 20 -4 24 -2 19 11 -6 17 18 31 35 20 7 -3 8 -1 4 5 -4 7 -2 12 3
12 6 0 10 3 10 8 -3 19 2 25 11 12 8 -12 10 -11 10 8 0 12 5 22 11 22 5 0 7
-5 3 -12 -4 -7 -3 -8 5 -4 9 6 9 11 -1 24 -11 14 -10 15 6 9 16 -6 17 -5 6 8
-10 12 -9 16 5 21 11 5 13 9 5 14 -8 5 -7 11 4 23 14 14 14 16 -2 22 -16 6
-16 8 2 21 18 13 19 14 2 14 -14 0 -17 5 -13 21 4 15 2 18 -7 10 -10 -8 -16
-4 -25 15 -8 19 -8 24 0 18 8 -4 9 -3 5 4 -4 7 -16 12 -28 12 -14 0 -18 5 -14
16 4 12 1 14 -14 9 -11 -4 -20 -3 -19 2 3 19 -2 33 -12 33 -5 0 -7 -5 -3 -12
4 -7 3 -8 -4 -4 -6 4 -9 13 -5 22 3 9 0 14 -8 12 -8 -2 -13 4 -11 12 3 12 1
13 -9 3 -7 -7 -18 -13 -23 -13 -6 0 -4 5 4 10 11 7 11 10 2 10 -7 0 -11 4 -8
8 3 5 -1 9 -9 10 -8 1 -22 3 -30 4 -8 1 -12 5 -9 10 3 4 0 8 -7 8 -8 0 -8 4 1
15 11 13 10 14 -6 8 -10 -3 -23 -11 -27 -17 -5 -7 -6 -4 -3 7 9 27 -4 41 -19
21 -11 -16 -12 -15 -10 9 2 15 -1 25 -6 21 -5 -3 -7 -9 -4 -14 3 -5 0 -12 -6
-16 -7 -4 -10 -3 -6 2 3 5 -1 18 -9 29 -10 13 -14 15 -14 4 0 -12 -2 -12 -9 1
-6 8 -7 18 -4 24 4 5 1 6 -6 2 -7 -5 -20 -2 -29 6 -30 23 -56 35 -74 32 -11
-1 -15 3 -11 12 4 10 0 12 -13 7 -13 -5 -15 -3 -10 8 4 8 0 5 -9 -6 -12 -14
-16 -16 -15 -5 1 8 2 22 1 30 -1 13 -2 13 -11 0 -8 -12 -10 -10 -10 8 0 13 -3
21 -7 19 -10 -6 -34 19 -26 27 4 3 -2 6 -12 6 -14 0 -15 3 -5 15 10 12 8 14
-9 10 -11 -2 -24 1 -27 7 -4 6 -3 8 2 5 6 -3 16 -2 24 4 13 7 12 9 -2 9 -9 0
-20 5 -24 12 -4 6 -3 8 3 5 5 -3 10 0 10 8 0 7 -8 12 -19 10 -15 -3 -16 -1 -8
15 7 14 6 19 -6 24 -9 4 -14 13 -10 21 3 9 0 15 -9 15 -18 0 -18 -1 -4 38 6
18 16 29 22 25 6 -3 7 -1 3 6 -6 9 -11 9 -22 0 -12 -10 -13 -9 -8 5 3 9 11 16
18 16 7 0 6 3 -2 9 -11 6 -10 11 3 25 12 12 13 16 3 16 -10 0 -10 2 1 9 11 7
11 9 0 14 -10 4 -10 6 -1 6 15 1 16 35 0 64 -9 19 -9 20 3 10 12 -9 14 -2 12
50 -2 91 -2 89 -15 81 -9 -5 -9 -2 1 9 11 14 11 17 0 17 -11 0 -11 2 1 10 8 5
10 10 4 10 -7 0 -15 7 -18 16 -5 14 -4 15 9 4 13 -11 14 -10 9 4 -3 9 -10 16
-15 16 -6 0 -6 7 0 18 7 14 6 19 -4 19 -8 0 -11 -5 -8 -10 3 -6 1 -7 -4 -4 -6
4 -8 19 -5 33 3 19 1 25 -7 20 -6 -4 -11 -1 -11 9 0 9 -5 13 -11 9 -7 -4 -6 2
2 17 11 21 11 23 -3 11 -13 -10 -18 -10 -24 -1 -4 8 -3 9 4 5 7 -4 12 -2 12 3
0 6 -9 11 -19 11 -11 0 -21 5 -23 11 -2 5 -11 11 -20 13 -10 1 -21 6 -25 11
-4 4 -3 5 4 1 6 -3 14 -2 17 3 4 5 -7 7 -24 5 -16 -3 -30 -1 -30 5 0 10 -25 9
-36 -2 -12 -11 -26 -8 -18 4 5 8 1 8 -14 0 -12 -6 -24 -15 -27 -21 -3 -5 -13
-6 -22 -3 -11 4 -14 3 -9 -5 5 -8 1 -10 -10 -5 -13 5 -15 3 -9 -8 8 -12 6 -12
-9 0 -9 8 -16 10 -14 5 2 -5 1 -9 -2 -9 -3 0 -16 -10 -29 -22 -24 -22 -52 -23
-79 -1 -14 12 -14 10 -2 -12 12 -22 11 -24 -2 -13 -8 7 -18 10 -21 6 -4 -3
-10 3 -14 13 -9 25 -35 45 -50 39 -7 -2 -13 0 -13 6 0 6 -7 9 -14 6 -11 -4
-13 -1 -9 10 5 12 2 15 -9 10 -9 -3 -25 3 -36 14 -12 10 -28 19 -36 19 -7 0
-16 7 -19 15 -4 8 -15 12 -27 10 -15 -3 -20 0 -17 9 4 10 -1 12 -15 8 -16 -4
-19 -2 -13 9 8 12 6 12 -8 0 -15 -12 -17 -11 -17 3 0 9 -5 16 -11 16 -5 0 -8
-4 -4 -9 3 -5 0 -13 -6 -17 -7 -4 -9 -3 -6 3 10 16 -22 38 -49 35 -15 -2 -24
2 -24 10 0 10 -3 9 -10 -2 -8 -13 -10 -12 -10 5 0 15 -3 16 -12 7 -17 -17 -26
-15 -30 5 -3 18 -58 28 -58 11 0 -5 -5 -6 -10 -3 -6 4 -7 12 -3 18 4 7 0 6
-10 -2 -13 -10 -17 -10 -17 -1 0 9 -4 9 -17 -1 -11 -10 -14 -10 -9 -1 9 15 1
15 -24 2 -13 -7 -21 -7 -25 0 -4 6 -3 9 2 8 4 -2 9 0 11 5 5 16 1 19 -13 7
-12 -10 -18 -10 -32 1 -11 9 -14 10 -9 2 9 -16 -42 -15 -62 1 -10 7 -16 5 -23
-5 -6 -10 -9 -11 -9 -1 0 7 -5 10 -10 7 -6 -4 -7 -12 -3 -18 3 -7 -2 -5 -13 3
-22 19 -85 20 -106 3 -12 -10 -15 -10 -15 2 0 8 3 12 7 10 4 -2 7 2 7 10 0 10
-6 10 -26 -3 -14 -10 -22 -12 -17 -4 4 7 0 19 -10 30 -17 16 -17 16 -11 0 3
-10 2 -20 -3 -23 -6 -4 -10 4 -11 17 0 13 -3 18 -6 11 -3 -10 -7 -10 -18 0 -7
7 -11 15 -9 18 2 3 -3 6 -11 6 -8 0 -12 -4 -10 -8 3 -4 -2 -9 -10 -12 -10 -4
-12 -1 -8 10 5 12 2 15 -10 10 -10 -4 -20 0 -25 10 -7 12 -18 15 -46 10 -20
-3 -34 -3 -32 1 11 18 -34 5 -52 -15z m353 -91 c-3 -3 -11 0 -18 7 -9 10 -8
11 6 5 10 -3 15 -9 12 -12z m519 -60 c3 -5 -1 -9 -9 -9 -8 0 -12 4 -9 9 3 4 7
8 9 8 2 0 6 -4 9 -8z m131 -62 c-3 -5 -12 -10 -18 -10 -7 0 -6 4 3 10 19 12
23 12 15 0z m176 -97 c13 -16 12 -17 -3 -4 -10 7 -18 15 -18 17 0 8 8 3 21
-13z m750 -880 c13 -16 12 -17 -3 -4 -14 11 -18 11 -18 1 0 -8 -3 -11 -6 -7
-5 5 3 27 10 27 2 0 10 -8 17 -17z m-2371 -475 c0 -4 -4 -8 -9 -8 -6 0 -12 4
-15 8 -3 5 1 9 9 9 8 0 15 -4 15 -9z m660 -868 c0 -5 -2 -10 -4 -10 -3 0 -8 5
-11 10 -3 6 -1 10 4 10 6 0 11 -4 11 -10z m520 -260 c0 -5 -5 -10 -11 -10 -5
0 -7 5 -4 10 3 6 8 10 11 10 2 0 4 -4 4 -10z m110 -6 c0 -8 -19 -13 -24 -6 -3
5 1 9 9 9 8 0 15 -2 15 -3z m-207 -89 c-3 -9 -8 -14 -10 -11 -3 3 -2 9 2 15 9
16 15 13 8 -4z"/>
<path d="M1927 3119 c7 -7 15 -10 18 -7 3 3 -2 9 -12 12 -14 6 -15 5 -6 -5z"/>
<path d="M743 3048 c1 -7 -4 -12 -11 -10 -8 1 -11 -2 -7 -8 5 -8 11 -8 21 1 7
6 11 15 8 20 -8 13 -14 11 -11 -3z"/>
<path d="M192 1834 c10 -10 20 -16 22 -13 3 3 -5 11 -17 18 -21 13 -21 12 -5
-5z"/>
<path d="M575 1400 c-3 -5 -1 -10 4 -10 6 0 11 5 11 10 0 6 -2 10 -4 10 -3 0
-8 -4 -11 -10z"/>
<path d="M790 1066 c0 -2 7 -9 15 -16 13 -11 14 -10 9 4 -5 14 -24 23 -24 12z"/>
<path d="M1010 856 c0 -2 7 -7 16 -10 8 -3 12 -2 9 4 -6 10 -25 14 -25 6z"/>
<path d="M1836 508 c3 -5 10 -6 15 -3 13 9 11 12 -6 12 -8 0 -12 -4 -9 -9z"/>
<path d="M2155 300 c3 -5 11 -10 16 -10 6 0 7 5 4 10 -3 6 -11 10 -16 10 -6 0
-7 -4 -4 -10z"/>
<path d="M2635 40 c3 -5 8 -10 11 -10 2 0 4 5 4 10 0 6 -5 10 -11 10 -5 0 -7
-4 -4 -10z"/>
</g>
</svg>
